# Blender v2.79 (sub 0) OBJ File: ''
# www.blender.org
mtllib puffparticle.mtl
o Icosphere.002
v 0.060706 -0.982768 0.038338
v 0.710268 -0.395573 0.479647
v -0.162672 -0.334103 0.863909
v -0.838100 -0.379285 0.170823
v -0.276385 -0.447215 -0.850640
v 0.744389 -0.435531 -0.687720
v 0.299019 0.445919 0.723691
v -0.585249 0.603918 0.622133
v -0.804471 0.184923 -0.611520
v -0.178434 0.630330 -0.796003
v 0.688328 0.526334 -0.041680
v -0.194236 1.001227 0.120210
v 0.112876 -0.813730 -0.151685
v 0.799821 -0.147550 0.511418
v -0.261487 -0.209375 0.736040
v -0.814458 -0.332358 -0.001451
v -0.124852 -0.380069 -0.692387
v 0.723600 -0.447215 -0.525720
v 0.175542 0.491871 0.972119
v -0.723600 0.447215 0.525720
v -0.445162 0.542255 -0.761448
v 0.276385 0.447215 -0.850640
v 0.763810 0.741031 0.287778
v -0.056356 0.882357 0.067922
v 0.000000 -1.000000 0.213129
v 0.723600 -0.447215 0.525720
v -0.230559 -0.571261 0.962819
v -0.894425 -0.447215 0.000000
v -0.276385 -0.447215 -0.850640
v 0.837508 -0.168566 -0.310994
v 0.374937 0.580971 0.736313
v -0.723600 0.447215 0.525720
v -0.784933 0.240533 -0.612942
v 0.276385 0.447215 -0.850640
v 0.765334 0.447215 0.000000
v 0.000000 1.000000 0.473401
vt 0.092759 0.016693
vt 0.196573 0.000000
vt 0.196573 0.119227
vt 0.500000 0.262558
vt 0.500000 0.408468
vt 0.368430 0.340935
vt 0.085276 0.178750
vt 0.000000 0.080196
vt 0.397771 0.453509
vt 0.411663 0.217484
vt 0.368430 0.286485
vt 0.352179 0.427403
vt 0.308099 0.340490
vt 0.185588 0.243385
vt 0.023992 0.203042
vt 0.140438 0.500000
vt 0.024006 0.489493
vt 0.000000 0.378273
vt 0.232725 0.427403
vt 0.267795 0.217484
vt 0.380318 0.180958
vt 0.248697 0.217484
vt 0.342753 0.055553
vt 0.380318 0.017648
vt 0.260820 0.000000
vt 0.140438 0.333288
vt 0.196573 0.286007
vt 0.196573 0.124650
vt 0.041327 0.243385
vt 0.895705 0.773672
vt 1.000000 0.903899
vt 0.873683 0.922406
vt 1.000000 0.741584
vt 0.873683 0.767738
vt 0.809840 0.864735
vt 0.758607 0.741584
vt 0.500000 0.607926
vt 0.606642 0.522214
vt 0.567004 0.661974
vt 0.515407 0.719925
vt 0.637605 0.820426
vt 0.637605 0.981010
vt 0.516328 0.812520
vt 0.873683 0.942312
vt 0.773854 0.983159
vt 0.698243 0.862222
vt 0.698243 0.673313
vt 0.650040 0.747043
vt 0.554125 0.747043
vt 0.698243 0.500000
vt 0.500000 1.000000
vt 0.756466 0.741584
vt 0.698243 0.618419
vt 0.812025 0.603054
vt 0.887449 0.710357
vt 0.887449 0.525834
vt 0.795365 0.500000
vt 0.384208 0.676443
vt 0.405113 0.540445
vt 0.500000 0.651445
vt 0.231574 0.710600
vt 0.355115 0.731394
vt 0.208250 0.814526
vt 0.004295 0.500000
vt 0.099448 0.504254
vt 0.000000 0.633637
vt 0.007616 0.741037
vt 0.110697 0.804771
vt 0.000000 0.895701
vt 0.355115 0.902017
vt 0.208250 0.633162
vt 0.257996 0.526844
vt 0.292492 0.591901
vt 0.500000 0.500000
vt 0.133815 0.673927
vt 0.110697 0.937630
vt 0.227346 0.951398
vt 0.304233 0.710600
vt 0.208250 0.596076
vt 0.013118 0.741037
vt 0.019038 1.000000
vt 0.384208 0.500000
vt 0.384208 0.705861
vt 0.208250 0.683895
vt 0.492288 0.753976
vt 0.473919 0.917125
vt 0.355332 0.917125
vt 0.355115 0.710600
vn 0.2296 -0.7342 0.6390
vn 0.6529 -0.7561 0.0450
vn -0.4399 -0.7601 0.4782
vn -0.5645 -0.7840 -0.2583
vn 0.0958 -0.8362 -0.5401
vn 0.9988 0.0395 0.0278
vn 0.3977 -0.0709 0.9148
vn -0.7048 -0.1382 0.6958
vn -0.7735 -0.4978 -0.3923
vn 0.1571 0.0358 -0.9869
vn 0.8437 0.2793 0.4585
vn -0.0728 0.2180 0.9732
vn -0.9737 0.2026 0.1042
vn -0.3324 0.0779 -0.9399
vn 0.6122 0.4651 -0.6394
vn 0.4934 0.8026 0.3353
vn 0.0611 0.7589 0.6483
vn -0.7609 0.6435 -0.0834
vn -0.6101 0.7307 -0.3063
vn 0.3970 0.8531 -0.3385
vn 0.1730 -0.7787 0.6031
vn 0.5864 -0.7886 0.1848
vn -0.3659 -0.8338 0.4134
vn -0.4711 -0.7776 -0.4165
vn 0.0656 -0.7641 -0.6417
vn 0.9967 0.0205 -0.0792
vn 0.2110 -0.4274 0.8791
vn -0.7310 -0.3217 0.6018
vn -0.6876 -0.2887 -0.6663
vn 0.1660 -0.2623 -0.9506
vn 0.7060 0.1996 0.6795
vn -0.4435 -0.0252 0.8959
vn -0.9527 0.2385 -0.1885
vn -0.1375 -0.1214 -0.9830
vn 0.8579 0.2702 -0.4370
vn 0.0560 0.9218 0.3837
vn -0.2603 0.8603 0.4383
vn -0.5757 0.8151 -0.0644
vn 0.0698 0.9111 -0.4063
vn 0.2475 0.9072 -0.3401
vn 0.3484 -0.7635 0.5438
vn 0.6423 -0.7491 -0.1620
vn -0.5521 -0.7856 0.2795
vn -0.4415 -0.8380 -0.3208
vn 0.4307 -0.7502 -0.5017
vn 0.9881 0.0410 0.1482
vn 0.4207 -0.0429 0.9062
vn -0.8219 -0.1637 0.5456
vn -0.7524 -0.3674 -0.5467
vn 0.4753 -0.2937 -0.8294
vn 0.8790 0.2105 0.4278
vn -0.2145 0.2957 0.9309
vn -0.9842 0.1755 0.0212
vn -0.2439 0.1507 -0.9580
vn 0.8175 0.3331 -0.4699
vn 0.6561 0.7229 0.2165
vn -0.2182 0.3711 0.9026
vn -0.6084 0.7860 -0.1099
vn -0.2629 0.8696 -0.4179
vn 0.4540 0.8520 -0.2609
usemtl None
s off
f 1/1/1 2/2/1 3/3/1
f 2/4/2 1/5/2 6/6/2
f 1/1/3 3/3/3 4/7/3
f 1/1/4 4/7/4 5/8/4
f 1/5/5 5/9/5 6/6/5
f 2/4/6 6/6/6 11/10/6
f 3/11/7 2/12/7 7/13/7
f 4/7/8 3/3/8 8/14/8
f 5/8/9 4/7/9 9/15/9
f 6/16/10 5/17/10 10/18/10
f 2/12/11 11/19/11 7/13/11
f 3/11/12 7/13/12 8/20/12
f 4/21/13 8/22/13 9/23/13
f 5/24/14 9/23/14 10/25/14
f 6/16/15 10/18/15 11/26/15
f 7/13/16 11/19/16 12/27/16
f 8/20/17 7/13/17 12/27/17
f 9/23/18 8/22/18 12/28/18
f 10/25/19 9/23/19 12/28/19
f 11/26/20 10/18/20 12/29/20
f 13/30/21 14/31/21 15/32/21
f 14/31/22 13/30/22 18/33/22
f 13/34/23 15/35/23 16/36/23
f 13/37/24 16/38/24 17/39/24
f 13/37/25 17/39/25 18/40/25
f 14/41/26 18/42/26 23/43/26
f 15/35/27 14/44/27 19/45/27
f 16/36/28 15/35/28 20/46/28
f 17/39/29 16/38/29 21/47/29
f 18/40/30 17/39/30 22/48/30
f 14/41/31 23/43/31 19/49/31
f 15/35/32 19/45/32 20/46/32
f 16/38/33 20/50/33 21/47/33
f 17/39/34 21/47/34 22/48/34
f 18/42/35 22/51/35 23/43/35
f 19/52/36 23/53/36 24/54/36
f 20/55/37 19/52/37 24/54/37
f 21/56/38 20/55/38 24/54/38
f 22/57/39 21/56/39 24/54/39
f 23/53/40 22/57/40 24/54/40
f 25/58/41 26/59/41 27/60/41
f 26/61/42 25/62/42 30/63/42
f 25/64/43 27/65/43 28/66/43
f 25/67/44 28/68/44 29/69/44
f 25/62/45 29/70/45 30/63/45
f 26/71/46 30/72/46 35/73/46
f 27/60/47 26/59/47 31/74/47
f 28/66/48 27/65/48 32/75/48
f 29/69/49 28/68/49 33/76/49
f 30/63/50 29/70/50 34/77/50
f 26/71/51 35/73/51 31/78/51
f 27/65/52 31/79/52 32/75/52
f 28/66/53 32/75/53 33/80/53
f 29/69/54 33/76/54 34/81/54
f 30/72/55 34/82/55 35/73/55
f 31/78/56 35/73/56 36/83/56
f 32/75/57 31/79/57 36/84/57
f 33/85/58 32/86/58 36/87/58
f 34/88/59 33/85/59 36/87/59
f 35/73/60 34/82/60 36/83/60
